<?xml version="1.0" encoding="UTF-8"?>
<svg id="Layer_4" data-name="Layer 4" xmlns="http://www.w3.org/2000/svg" viewBox="0 0 500 500">
  <defs>
    <style>
      .cls-1 {
        fill: #faf9f6;
        stroke-width: 0px;
      }
    </style>
  </defs>
  <path class="cls-1" d="M485.21,410.75c3-6.46,4.79-13.58,4.79-21.17v-219.87l-130.22,94.71,125.43,146.34Z"/>
  <path class="cls-1" d="M246.47,297.18c2.13,1.55,4.98,1.52,7.07,0l236.46-171.98v-14.78c0-27.91-22.62-50.53-50.53-50.53H60.53c-27.91,0-50.53,22.62-50.53,50.53v14.78l236.47,171.98Z"/>
  <path class="cls-1" d="M330.57,285.66l-55.87,40.63c-7.38,5.38-16.04,8.06-24.7,8.06s-17.31-2.68-24.69-8.06l-55.88-40.63L40.58,435.98c6.12,2.64,12.86,4.12,19.95,4.12h378.95c7.09,0,13.82-1.49,19.95-4.12l-128.85-150.33Z"/>
  <path class="cls-1" d="M10,169.7v219.87c0,7.59,1.79,14.72,4.79,21.17l125.44-146.34L10,169.7Z"/>
</svg>