<?xml version="1.0" encoding="UTF-8"?>
<svg id="Layer_4" data-name="Layer 4" xmlns="http://www.w3.org/2000/svg" viewBox="0 0 500 500">
  <defs>
    <style>
      .cls-1 {
        fill: #faf9f6;
        stroke-width: 0px;
      }
    </style>
  </defs>
  <path class="cls-1" d="M250,10C117.45,10,10,117.45,10,250s107.45,240,240,240,240-107.45,240-240S382.55,10,250,10ZM350.87,320.39l-24.47,24.47c-20.27,20.27-53.13,20.27-73.4,0l-97.87-97.87c-20.27-20.27-20.27-53.13,0-73.4l24.47-24.47c6.76-6.76,17.71-6.76,24.47,0l36.7,36.7c6.76,6.76,6.76,17.71,0,24.47l-24.47,24.47,48.93,48.93,24.47-24.47c6.76-6.76,17.71-6.76,24.47,0l36.7,36.7c6.76,6.76,6.76,17.71,0,24.47Z"/>
</svg>